<?xml version="1.0" encoding="utf-8"?>
<!-- Generator: Adobe Illustrator 19.2.0, SVG Export Plug-In . SVG Version: 6.00 Build 0)  -->
<svg version="1.1" id="Calque_1" xmlns="http://www.w3.org/2000/svg" xmlns:xlink="http://www.w3.org/1999/xlink" x="0px" y="0px"
	 viewBox="0 0 400 350" style="enable-background:new 0 0 400 350;" xml:space="preserve">
<style type="text/css">
	.st0{fill:#FFFFFF;}
	.st1{fill:none;stroke:#FFFFFF;stroke-width:1.2;stroke-linecap:round;stroke-linejoin:round;stroke-miterlimit:10;}
	.st2{fill:#1D1D1B;}
</style>
<g>
	<g>
		<path class="st0" d="M12.3,85.8L28,95.8l-6.4-15.2l1.4-1.2l14.3,8.2L30,70.2l2.2-2l8.5,21.1l-2.1,1.9L26,84l5.5,13.5l-2.1,1.9
			L10,87.8L12.3,85.8z"/>
		<path class="st0" d="M47.1,57.7l2.7-1.8l18,13.7l-2.3,1.6L61,67.7l-7.1,4.8l1.5,5.6l-2.3,1.6L47.1,57.7z M53.3,70.3l5.9-4
			l-8.9-6.8L53.3,70.3z"/>
		<path class="st0" d="M81,43.7c-1.3-1.7-3.2-1.9-5.5-0.6c-1.3,0.7-2.1,1.5-2.5,2.4c-0.4,0.9-0.4,1.8,0,2.5c0.4,0.8,0.9,1.3,1.6,1.4
			c0.6,0.2,1.5,0.2,2.6,0l4.7-0.7c1.6-0.2,3-0.2,4.2,0.2c1.2,0.4,2.2,1.3,3,2.8c0.8,1.5,0.8,3,0.1,4.7c-0.7,1.7-2.1,3-4.2,4.1
			c-2.1,1.1-4.1,1.5-6,1.1c-1.9-0.4-3.4-1.5-4.4-3.4l2.3-1.2c0.7,1.3,1.6,2,2.8,2.2c1.2,0.2,2.5-0.1,3.9-0.8
			c1.4-0.7,2.3-1.6,2.8-2.6c0.5-1,0.5-2,0.1-2.8c-0.4-0.8-1-1.4-1.8-1.6c-0.7-0.2-1.7-0.2-2.8-0.1l-4,0.5c-1.8,0.3-3.4,0.3-4.6,0
			c-1.2-0.3-2.1-1.2-2.9-2.6c-0.7-1.4-0.8-2.9-0.1-4.4c0.6-1.5,2-2.8,4-3.9c2-1.1,3.8-1.4,5.4-1.1c1.5,0.3,2.8,1.2,3.8,2.6L81,43.7z
			"/>
		<path class="st0" d="M93.3,32.1l15.5-6.1l0.9,2.2l-6.5,2.6l7,17.8l-2.5,1l-7-17.8l-6.5,2.6L93.3,32.1z"/>
		<path class="st0" d="M122,21.7l12.7-3.5l0.6,2.2l-10.1,2.8l1.9,6.9l9.6-2.6l0.6,2.2l-9.6,2.6l1.9,7l10.1-2.8l0.6,2.3l-12.7,3.5
			L122,21.7z"/>
		<path class="st0" d="M168.3,12.1l6.7,9.3L180,11l3.2-0.3l-6.5,13.4l0.8,8.8l-2.7,0.3l-0.8-8.8l-8.8-11.9L168.3,12.1z"/>
		<path class="st0" d="M204.2,10c2.8,0,5,1,6.7,3s2.5,4.7,2.4,8.3c-0.1,3.6-1,6.4-2.7,8.2c-1.7,1.9-4,2.8-6.8,2.7c-2.8,0-5-1-6.7-3
			c-1.7-1.9-2.5-4.7-2.4-8.3c0.1-3.6,1-6.4,2.7-8.2C199.2,10.9,201.4,10,204.2,10z M204.2,12.4c-2,0-3.6,0.7-4.8,2.2
			c-1.2,1.5-1.8,3.6-1.8,6.5c0,2.8,0.5,5,1.6,6.5c1.1,1.5,2.7,2.2,4.7,2.3c2,0,3.6-0.7,4.8-2.1c1.2-1.4,1.8-3.6,1.9-6.4
			c0-2.8-0.5-5-1.7-6.5C207.8,13.2,206.2,12.5,204.2,12.4z"/>
		<path class="st0" d="M231.3,12.1l-1.8,13.6c-0.3,2,0,3.5,0.9,4.5c0.9,1,2.1,1.6,3.7,1.9c1.6,0.2,3,0,4.1-0.8
			c1.1-0.7,1.8-2.1,2.1-4.1l1.8-13.6l2.7,0.4L243,27.5c-0.4,2.7-1.4,4.6-3,5.7c-1.7,1.2-3.7,1.6-6.2,1.2c-2.5-0.3-4.3-1.3-5.6-2.8
			c-1.3-1.6-1.7-3.7-1.4-6.3l1.8-13.6L231.3,12.1z"/>
		<path class="st0" d="M274.4,26.9c-0.4,1.7-1.3,3-2.5,3.8c-1.2,0.8-2.7,1.2-4.6,1l3.7,10.2l-3.4-0.9l-3.2-9.9l-3.6-0.9l-2.2,8.5
			L256,38l5.4-20.8l7.2,1.9c2.3,0.6,4,1.6,4.9,3.1C274.6,23.6,274.8,25.2,274.4,26.9z M265.8,29.5c1.6,0.4,2.8,0.3,3.9-0.2
			c1-0.6,1.7-1.5,2-2.7c0.3-1.2,0.2-2.3-0.4-3.3c-0.6-0.9-1.6-1.6-3.1-2l-4.6-1.2l-2.1,8.2L265.8,29.5z"/>
		<path class="st0" d="M304.9,31.3l15.2,6.9l-1,2.1l-6.4-2.9l-8,17.4l-2.5-1.1l8-17.4l-6.4-2.9L304.9,31.3z"/>
		<path class="st0" d="M332.1,44.6l2.3,1.3l-10.6,18.7l-2.3-1.3L332.1,44.6z"/>
		<path class="st0" d="M352.3,57l-2.6,16l14.3-7.6l3.1,2.2l-12.6,17.4l-2.2-1.6l10.3-14.3L347.9,77l-1.5-1.1l2.8-16.7l-10.5,14.5
			l-2.2-1.6l12.6-17.4L352.3,57z"/>
		<path class="st0" d="M380.3,79l9.7,9l-1.6,1.7l-7.7-7.2l-4.9,5.3l7.2,6.8l-1.6,1.7l-7.2-6.8l-5,5.3l7.7,7.2l-1.6,1.7l-9.7-9
			L380.3,79z"/>
	</g>
	<g>
		<path class="st0" d="M106.2,317.8l9.8,15.7v-15.7h4V340h-4.1l-10.1-16.3V340h-4v-22.2H106.2z"/>
		<path class="st0" d="M143.4,317.4c1.5,0,2.8,0.2,4.1,0.7c1.2,0.5,2.3,1.2,3.2,2.2c1.9,2,2.8,4.9,2.8,8.6c0,3.8-0.9,6.7-2.8,8.7
			c-1.8,1.9-4.2,2.9-7.3,2.9c-3.1,0-5.5-1-7.2-2.9c-1.9-2-2.8-4.9-2.8-8.6c0-3.8,0.9-6.7,2.8-8.7
			C137.8,318.3,140.3,317.4,143.4,317.4z M149.2,328.9c0-2.5-0.5-4.5-1.6-5.9c-1.1-1.4-2.5-2.1-4.3-2.1c-1.8,0-3.2,0.7-4.3,2.1
			c-1.1,1.4-1.6,3.3-1.6,5.9c0,2.5,0.5,4.5,1.6,5.8c1.1,1.4,2.5,2,4.3,2c1.8,0,3.2-0.7,4.3-2C148.7,333.4,149.2,331.5,149.2,328.9z"
			/>
		<path class="st0" d="M189.7,317.8l6.1,13.2l6.1-13.2h5.6V340h-4.1v-16.8l-6.3,14.4h-2.6l-6.5-14.9V340h-4v-22.2H189.7z"/>
		<path class="st0" d="M230.8,317.4c1.5,0,2.8,0.2,4.1,0.7c1.2,0.5,2.3,1.2,3.2,2.2c1.9,2,2.8,4.9,2.8,8.6c0,3.8-0.9,6.7-2.8,8.7
			c-1.8,1.9-4.2,2.9-7.3,2.9c-3.1,0-5.5-1-7.2-2.9c-1.9-2-2.8-4.9-2.8-8.6c0-3.8,0.9-6.7,2.8-8.7
			C225.3,318.3,227.7,317.4,230.8,317.4z M236.7,328.9c0-2.5-0.5-4.5-1.6-5.9c-1.1-1.4-2.5-2.1-4.3-2.1s-3.2,0.7-4.3,2.1
			c-1.1,1.4-1.6,3.3-1.6,5.9c0,2.5,0.5,4.5,1.6,5.8c1.1,1.4,2.5,2,4.3,2s3.2-0.7,4.3-2C236.2,333.4,236.7,331.5,236.7,328.9z"/>
		<path class="st0" d="M270.7,324.6c0,1.6-0.4,2.9-1.3,4c-0.9,1.1-2.2,1.9-3.8,2.3l5.9,9h-5.3l-4.9-8.6h-3.1v8.6h-4v-22.2h8.2
			c2.6,0,4.7,0.6,6.1,1.9C269.9,320.9,270.7,322.5,270.7,324.6z M262,328.6c1.5,0,2.6-0.3,3.3-1c0.8-0.7,1.1-1.6,1.1-2.7
			c0-1.1-0.3-2-1-2.7c-0.7-0.7-1.7-1-3.1-1h-4.2v7.3H262z"/>
		<path class="st0" d="M284.7,317.8H299v3.5h-10.2v5.8h9.6v3.5h-9.6v5.8H299v3.5h-14.3V317.8z"/>
	</g>
	<g>
		<path class="st1" d="M199.3,94.4l7.9,48.7l-7.6,11.7c-1,1.5-2.7,2.5-4.6,2.5l-29.8,0c-2,0-3.9-1.1-4.8-2.9l-6.6-12.4l8.3-47.4"/>
		<path class="st1" d="M170.2,99.2l-8-4.9l8-4.9c0.9-0.5,1.8-0.8,2.8-0.8h15.5c1,0,2,0.3,2.8,0.8l8,4.9l-8,4.9
			c-0.9,0.5-1.8,0.8-2.8,0.8H173C172,100,171,99.8,170.2,99.2z"/>
		<path class="st1" d="M200,99l-8,4.9c-0.9,0.5-1.8,0.8-2.8,0.8h-16.8c-1,0-2-0.3-2.8-0.8l-8.1-4.9"/>
		<line class="st1" x1="197.3" y1="92.7" x2="201.3" y2="78"/>
		<path class="st1" d="M238.4,78l7.9,48.7l-7.5,10.8c-1,1.5-2.7,2.3-4.5,2.3h-27.6"/>
		<path class="st1" d="M209.3,82.8l-8-4.9l8-4.9c0.9-0.5,1.8-0.8,2.8-0.8h15.5c1,0,2,0.3,2.8,0.8l8,4.9l-8,4.9
			c-0.9,0.5-1.8,0.8-2.8,0.8h-15.5C211.1,83.6,210.1,83.3,209.3,82.8z"/>
		<path class="st1" d="M239.1,82.6l-8,4.9c-0.9,0.5-1.8,0.8-2.8,0.8h-16.8c-1,0-2-0.3-2.9-0.8l-8.4-5.2"/>
		<line class="st1" x1="170.3" y1="109.6" x2="165.3" y2="148.3"/>
		<line class="st1" x1="190.3" y1="109.4" x2="194.2" y2="148.6"/>
		<line class="st1" x1="230.2" y1="93" x2="234.1" y2="132.2"/>
		<g>
			<path class="st2" d="M181.3,94.3"/>
			<g>
				<path class="st0" d="M181.3,95c1,0,1-1.5,0-1.5C180.4,93.5,180.4,95,181.3,95L181.3,95z"/>
			</g>
		</g>
		<g>
			<path class="st2" d="M222.1,79"/>
			<g>
				<path class="st0" d="M222.1,79.7c1,0,1-1.5,0-1.5C221.1,78.2,221.1,79.7,222.1,79.7L222.1,79.7z"/>
			</g>
		</g>
		<g>
			<path class="st2" d="M220,76.1"/>
			<g>
				<path class="st0" d="M220,76.8c1,0,1-1.5,0-1.5C219,75.3,219,76.8,220,76.8L220,76.8z"/>
			</g>
		</g>
		<g>
			<path class="st2" d="M218,79"/>
			<g>
				<path class="st0" d="M218,79.7c1,0,1-1.5,0-1.5C217,78.2,217,79.7,218,79.7L218,79.7z"/>
			</g>
		</g>
		<line class="st1" x1="207.7" y1="93.2" x2="204.4" y2="125.8"/>
	</g>
	<g>
		<path class="st0" d="M287.1,180.8c1.9,0,3.8-0.8,5.1-2.1c1.3-1.3,2.1-3.2,2.1-5.1c0-1.9-0.8-3.8-2.1-5.1c-1.3-1.3-3.2-2-5.1-2
			c-2,0-3.8,0.7-5.1,2c-1.4,1.4-2.1,3.2-2.1,5.1c0,1.9,0.8,3.8,2.1,5.1C283.3,180,285.2,180.8,287.1,180.8z"/>
		<path class="st0" d="M338.6,152.2c0.3-0.7,0.5-1.4,0.5-2.2c0-2.2-1.3-4.1-3.3-5c-0.7-0.3-1.4-0.5-2.2-0.5c-2.2,0-4.1,1.3-5,3.3
			l-9.2,21.1c-3.4,8-6.9,15.9-10.4,23.9c-1.7,3.9-3.4,7.9-5.2,11.8l-7.3,16.7c-1,2.3-2,4.6-3,7c-3.4,8-7,16.3-11.1,24.1
			c-1.3,2.4-2.4,4.4-3.5,6.2c-3.2,5.3-7.3,11-13.5,13.4c-3,1.1-5.2,0.5-6.5-2c-2.6-4.9-1.2-15.5,3.5-27c3.7-9.2,8-18.3,12.1-27.2
			c3.1-6.7,6.3-13.7,9.3-20.6c1.2-2.8-0.1-6-2.8-7.1c-0.7-0.3-1.4-0.4-2.1-0.4c-2.2,0-4.1,1.3-5,3.3c-3.1,7.1-5.9,13.7-8.6,19.6
			c-6,13.6-13.2,29.6-21,45c-0.2,0.4-0.4,0.7-0.5,1.1c-0.4,0.8-0.8,1.7-1.3,2.5c-6.2,10.2-13.1,15.5-17.4,13.5
			c-3.6-1.7-6-8.5-3.9-14.7c3.7-10.6,6-15.8,8.7-21.8c1.7-3.7,3.4-7.5,5.7-13c1-2.5,9.4-24.2-0.1-32.6c-4.5-3.9-11.1-3.6-19.4,1.1
			c-5.3,3-10.7,7.3-15.9,12.9c0.3-7.4-1.4-12.6-5.1-15.4c-1.9-1.4-4.1-2.2-6.5-2.2c-6.7,0-13.8,5.7-16.4,7.9
			c-3.6,2.9-8.1,8.5-11.9,12.5c1-3.3,2.7-8.7,3.7-12c0.8-2.9-0.9-5.9-3.8-6.7c-2.8-0.8-5.9,1-6.7,3.8c-7.2,25.7-16.1,46.1-27.3,62.2
			c-6.1,8.8-18,19.1-31.6,19.1c-3.9,0-7.7-0.9-11.2-2.7c-9-4.5-12.9-14.6-10.9-27.6c0.6-3.6,1.3-7.1,2.2-10.4
			c1.6,0.4,5.5,1.3,10.7,1.3c8.4,0,20.9-2.3,33.1-13c12.6-11.1,12.8-19.9,10.7-25.4c-3-7.9-11.9-11.5-19-11.5
			c-9.1,0-19.7,5.2-28.3,13.9c-7.3,7.4-16.7,20.9-20.2,43.5c-2.8,17.7,3.5,32.3,16.7,39c4.9,2.5,10.2,3.7,15.9,3.7
			c10.4,0,19-3.6,26.1-8.8c-0.2,0.7-0.5,1.5-0.7,2.2c-0.4,1.4-0.3,2.9,0.3,4.1c0.7,1.3,1.8,2.3,3.2,2.7c2.8,0.9,5.9-0.7,6.8-3.5
			c3.8-11.8,9.4-24.1,14.4-34.5c1.6-3.2,4-7.8,7.2-13c1.1-1.7,2.3-3.4,3.5-5c8.5-11.1,16-19.3,23.8-25.5c0.3-0.3,0.7-0.6,1.1-0.9
			c2.1-1.8,5.7-4.5,8.2-4.1c0.6,0.1,1.2,0.5,1.5,1c0.7,1.2,0.7,3.1,0.6,4.4c-0.2,2.7-1,5.3-1.8,7.9c-1.5,4.8-3.1,9.5-5.2,14.1
			c-0.6,1.3-1.2,2.6-1.8,3.8l-0.9,1.8c-1.1,2.3-2.3,4.7-3.5,7.2c-1.5,3-2.4,5-2.5,5.3c-3.7,7.9-9,19.8-12.8,31.3
			c-0.4,1.4-0.3,2.9,0.3,4.1c0.7,1.3,1.8,2.3,3.2,2.7c2.8,0.9,5.9-0.7,6.8-3.5c3.8-11.8,9.4-24.1,14.4-34.5
			c4.8-9.7,17.9-33.3,34.8-42.8c1.3-0.8,3.9-2.2,5.7-2.2c0.8,0,1.7,0.2,2,2.1c0.7,4.3-0.5,10.2-3.6,18.1c-2.1,5.3-3.9,9.1-5.5,12.7
			c-2.7,5.9-5.3,11.5-9.1,22.7c-3.9,11.2,0.4,23.8,9.5,28.1c1.4,0.7,3.7,1.5,6.7,1.5c4.9,0,12.4-2.3,20.6-13.2
			c0.4,1.6,0.9,3,1.6,4.3c2.3,4.3,6,7.2,10.8,8.3c0.5,0.1,1.4,0.3,2.7,0.3c4.4,0,12.9-2,22.5-14.9c0.3,1.8,0.9,3.4,1.5,4.9
			c2,4.2,5.5,7.1,10.1,8.4c1.5,0.4,3.1,0.6,4.7,0.6c8.6,0,16.6-6.1,23.7-18.2c5.6-9.5,8.7-19.5,8.8-19.9c0.4-1.4,0.3-2.9-0.4-4.1
			c-0.7-1.3-1.8-2.2-3.2-2.7c-0.5-0.2-1.1-0.2-1.6-0.2c-2.4,0-4.5,1.5-5.2,3.8c-3.1,9.9-12.6,30.5-22.3,30.5c-0.6,0-1.2-0.1-1.8-0.2
			c-1.5-0.4-2.4-1.2-3.1-2.5c-2-4.3-2.2-14.7,8.4-40L338.6,152.2z M110.4,195.4c4,0,7.9,2,8.8,4.5c1.2,3.1-1.7,8.1-7.7,13.4
			c-9.7,8.5-19.5,10.3-26,10.3c-3.2,0-5.6-0.4-7-0.7C87.5,202.7,102.4,195.4,110.4,195.4z"/>
	</g>
</g>
</svg>
